<svg width="26" height="26" viewBox="0 0 26 26" fill="currentColor" xmlns="http://www.w3.org/2000/svg">
<g id="&#240;&#159;&#166;&#134; icon &#34;linkedin&#34;">
<path id="Vector" d="M0.335938 7.06892H5.94791V25.4157H0.335938V7.06892ZM21.8665 8.20211C22.9817 8.81367 23.899 9.74 24.6185 10.9811C25.338 12.2222 25.6977 13.4903 25.6977 14.7854V25.4157H20.0318V14.7854C20.0318 14.4976 19.9239 14.1738 19.708 13.8141C19.4922 13.4543 19.2943 13.2205 19.1145 13.1126C18.8267 12.9327 18.4309 12.8428 17.9273 12.8428C17.4237 12.8428 17.0279 12.9147 16.7402 13.0586L14.4198 14.1918V25.4157H8.75389V7.06892H14.4198V7.9323C15.535 7.42866 16.7941 7.19483 18.1971 7.23081C19.6001 7.26678 20.8232 7.59055 21.8665 8.20211ZM3.14192 0C3.93335 0 4.59888 0.269806 5.13849 0.809419C5.6781 1.34903 5.94791 2.01455 5.94791 2.80598C5.94791 3.59742 5.6781 4.27193 5.13849 4.82953C4.59888 5.38713 3.93335 5.66593 3.14192 5.66593C2.35049 5.66593 1.68497 5.38713 1.14536 4.82953C0.605744 4.27193 0.335938 3.59742 0.335938 2.80598C0.335938 2.01455 0.605744 1.34903 1.14536 0.809419C1.68497 0.269806 2.35049 0 3.14192 0Z" />
</g>
</svg>
