<?xml version="1.0" encoding="UTF-8"?>
<svg id="Layer_2" data-name="Layer 2" xmlns="http://www.w3.org/2000/svg" viewBox="0 0 110.38 99.79">
  <path class="cls-1" d="M110.38,99.77c-.69,0-1.1,0-1.51,0-10.38,0-20.77-.02-31.15.03-1.06,0-1.68-.34-2.3-1.16-8.37-11-16.78-21.97-25.18-32.95-.17-.22-.36-.44-.61-.75-1.57,1.79-3.11,3.53-4.64,5.28-8.33,9.52-16.66,19.03-24.97,28.56-.61.7-1.23,1.03-2.19,1.01-4.74-.05-9.49-.02-14.23-.02-.38,0-.76,0-1.41,0,13.27-15.17,26.36-30.13,39.54-45.19C27.87,36.46,14.03,18.37,0,.02c.65,0,1.05,0,1.45,0,10.78,0,21.56,0,32.34-.02.85,0,1.36.27,1.86.93,7.6,10.09,15.23,20.17,22.86,30.25.15.2.31.38.54.67,1.74-1.98,3.44-3.91,5.13-5.85,7.31-8.35,14.63-16.7,21.91-25.07C86.7.23,87.32,0,88.22,0c4.74.04,9.49.02,14.23.02.38,0,.76,0,1.41,0-12.43,14.21-24.67,28.19-36.97,42.25,14.46,19.11,28.89,38.19,43.5,57.5ZM90.3,89.62c-.34-.48-.51-.75-.7-.99-13.02-17.21-26.03-34.41-39.05-51.62-6.67-8.82-13.35-17.63-19.99-26.47-.53-.7-1.06-.99-1.95-.97-2.62.07-5.24.02-7.87.03-.26,0-.51.05-.86.09.2.29.3.47.43.64,13.02,17.02,26.05,34.04,39.07,51.06,7,9.15,14,18.3,21.02,27.44.24.32.62.74.94.74,2.9.06,5.8.03,8.95.03Z"/>
</svg>
