<?xml version="1.0" encoding="UTF-8"?>
<svg xmlns="http://www.w3.org/2000/svg" xmlns:xlink="http://www.w3.org/1999/xlink" viewBox="0 0 32 32">
  <defs>
    <style>
      .cls-1, .cls-2 {
        fill: none;
      }

      .cls-3 {
        mask: url(#mask);
      }

      .cls-4 {
        fill: url(#New_Gradient_Swatch_1-2);
      }

      .cls-5 {
        fill: url(#radial-gradient-2);
      }

      .cls-6 {
        fill: url(#radial-gradient);
      }

      .cls-7 {
        isolation: isolate;
      }

      .cls-8 {
        mask: url(#mask-1);
      }

      .cls-9 {
        clip-path: url(#clippath-1);
      }

      .cls-10 {
        fill: url(#New_Gradient_Swatch_1);
      }

      .cls-2, .cls-11 {
        mix-blend-mode: screen;
      }

      .cls-12 {
        clip-path: url(#clippath);
      }

      .cls-11 {
        opacity: .2;
      }
    </style>
    <clipPath id="clippath">
      <path class="cls-1" d="M31.78,8.4l-4.72,4.72c-.74-.74-1.75-1.19-2.88-1.19-2.25,0-4.07,1.82-4.07,4.07s1.82,4.07,4.07,4.07c1.12,0,2.14-.46,2.88-1.19l4.72,4.72c-1.94,1.94-4.63,3.15-7.6,3.15-5.93,0-10.74-4.81-10.74-10.74s4.81-10.74,10.74-10.74c2.97,0,5.65,1.2,7.6,3.15h0Z"/>
    </clipPath>
    <radialGradient id="radial-gradient" cx="-139.76" cy="-1.81" fx="-139.76" fy="-1.81" r="11.07" gradientTransform="translate(159.81 18.95) rotate(.52) scale(.97)" gradientUnits="userSpaceOnUse">
      <stop offset=".4" stop-color="#fff" stop-opacity="0"/>
      <stop offset=".46" stop-color="#fff" stop-opacity=".07"/>
      <stop offset=".59" stop-color="#fff" stop-opacity=".26"/>
      <stop offset=".77" stop-color="#fff" stop-opacity=".57"/>
      <stop offset=".99" stop-color="#fff" stop-opacity=".98"/>
      <stop offset="1" stop-color="#fff"/>
    </radialGradient>
    <mask id="mask" x="13.44" y="5.23" width="21.51" height="21.51" maskUnits="userSpaceOnUse">
      <circle class="cls-6" cx="24.21" cy="15.97" r="10.74"/>
    </mask>
    <linearGradient id="New_Gradient_Swatch_1" data-name="New Gradient Swatch 1" x1="30.35" y1="7.2" x2="18.02" y2="24.8" gradientUnits="userSpaceOnUse">
      <stop offset="0" stop-color="#cff"/>
      <stop offset=".15" stop-color="#02eaea"/>
      <stop offset=".23" stop-color="#0ecad9"/>
      <stop offset=".38" stop-color="#2293bc"/>
      <stop offset=".52" stop-color="#3466a4"/>
      <stop offset=".66" stop-color="#414392"/>
      <stop offset=".79" stop-color="#4b2a84"/>
      <stop offset=".91" stop-color="#501b7c"/>
      <stop offset="1" stop-color="#53167a"/>
    </linearGradient>
    <clipPath id="clippath-1">
      <path class="cls-1" d="M13.49,19.18c-.7.55-1.57.89-2.53.89-2.25,0-4.07-1.82-4.07-4.07s1.82-4.07,4.07-4.07c.96,0,1.84.33,2.53.89.66-2.21,1.98-4.13,3.74-5.54-1.77-1.27-3.93-2.02-6.28-2.02C5.03,5.26.22,10.07.22,16s4.81,10.74,10.74,10.74c2.34,0,4.51-.75,6.28-2.02-1.76-1.4-3.08-3.33-3.74-5.54Z"/>
    </clipPath>
    <radialGradient id="radial-gradient-2" cx="5842.06" cy="6068.82" fx="5842.06" fy="6068.82" r="11.07" gradientTransform="translate(5950.83 -5599.34) rotate(90.52) scale(.97)" gradientUnits="userSpaceOnUse">
      <stop offset=".45" stop-color="#fff" stop-opacity="0"/>
      <stop offset=".51" stop-color="#fff" stop-opacity=".07"/>
      <stop offset=".62" stop-color="#fff" stop-opacity=".26"/>
      <stop offset=".79" stop-color="#fff" stop-opacity=".57"/>
      <stop offset=".99" stop-color="#fff" stop-opacity=".98"/>
      <stop offset="1" stop-color="#fff"/>
    </radialGradient>
    <mask id="mask-1" x=".22" y="5.26" width="21.51" height="21.51" maskUnits="userSpaceOnUse">
      <circle class="cls-5" cx="10.99" cy="16.03" r="10.74"/>
    </mask>
    <linearGradient id="New_Gradient_Swatch_1-2" data-name="New Gradient Swatch 1" x1="17.04" y1="24.68" x2="4.89" y2="7.33" xlink:href="#New_Gradient_Swatch_1"/>
  </defs>
  <g class="cls-7">
    <g id="Layer_1" data-name="Layer 1">
      <g>
        <g class="cls-12">
          <g class="cls-3">
            <circle class="cls-10" cx="24.19" cy="16" r="10.74"/>
          </g>
        </g>
        <g class="cls-9">
          <g class="cls-8">
            <circle class="cls-4" cx="10.96" cy="16" r="10.74"/>
          </g>
          <g class="cls-11">
            <path class="cls-2" d="M17.57,24.47c-1.82,1.43-4.12,2.28-6.61,2.28C5.03,26.74.22,21.93.22,16S5.03,5.26,10.96,5.26c2.5,0,4.79.85,6.61,2.28-1.78,1.4-3.12,3.34-3.74,5.59-.74-.74-1.75-1.19-2.88-1.19-2.25,0-4.07,1.82-4.07,4.07s1.82,4.07,4.07,4.07c1.12,0,2.14-.46,2.88-1.19.62,2.24,1.95,4.19,3.74,5.59Z"/>
          </g>
        </g>
      </g>
    </g>
  </g>
</svg>