<?xml version="1.0" encoding="UTF-8"?>
<svg xmlns="http://www.w3.org/2000/svg" xmlns:xlink="http://www.w3.org/1999/xlink" viewBox="0 0 695 370.59">
  <defs>
    <style>
      .cls-1, .cls-2 {
        fill: none;
      }

      .cls-3 {
        mask: url(#mask);
      }

      .cls-4 {
        fill: url(#New_Gradient_Swatch_1-2);
      }

      .cls-5 {
        fill: url(#radial-gradient-2);
      }

      .cls-6 {
        fill: url(#radial-gradient);
      }

      .cls-7 {
        isolation: isolate;
      }

      .cls-8 {
        mask: url(#mask-1);
      }

      .cls-9 {
        clip-path: url(#clippath-1);
      }

      .cls-10 {
        fill: #fff;
      }

      .cls-11 {
        fill: url(#New_Gradient_Swatch_1);
      }

      .cls-2, .cls-12 {
        mix-blend-mode: screen;
      }

      .cls-13 {
        clip-path: url(#clippath);
      }

      .cls-12 {
        opacity: .2;
      }
    </style>
    <clipPath id="clippath">
      <path class="cls-1" d="M457.49,71.4l-32.94,32.94c-5.14-5.14-12.24-8.32-20.09-8.32-15.69,0-28.41,12.72-28.41,28.41s12.72,28.41,28.41,28.41c7.84,0,14.95-3.18,20.09-8.32l32.94,32.94c-13.57,13.57-32.32,21.97-53.03,21.97-41.42,0-75-33.58-75-75s33.58-75,75-75c20.71,0,39.46,8.4,53.03,21.97h0Z"/>
    </clipPath>
    <radialGradient id="radial-gradient" cx="206.52" cy="114.83" fx="206.52" fy="114.83" r="77.3" gradientTransform="translate(205.29 10.99) rotate(.52) scale(.97)" gradientUnits="userSpaceOnUse">
      <stop offset=".4" stop-color="#fff" stop-opacity="0"/>
      <stop offset=".46" stop-color="#fff" stop-opacity=".07"/>
      <stop offset=".59" stop-color="#fff" stop-opacity=".26"/>
      <stop offset=".77" stop-color="#fff" stop-opacity=".57"/>
      <stop offset=".99" stop-color="#fff" stop-opacity=".98"/>
      <stop offset="1" stop-color="#fff"/>
    </radialGradient>
    <mask id="mask" x="329.46" y="49.22" width="150.2" height="150.21" maskUnits="userSpaceOnUse">
      <circle class="cls-6" cx="404.66" cy="124.22" r="75"/>
    </mask>
    <linearGradient id="New_Gradient_Swatch_1" data-name="New Gradient Swatch 1" x1="447.48" y1="62.99" x2="361.44" y2="185.87" gradientUnits="userSpaceOnUse">
      <stop offset="0" stop-color="#cff"/>
      <stop offset=".15" stop-color="#02eaea"/>
      <stop offset=".23" stop-color="#0ecad9"/>
      <stop offset=".38" stop-color="#2293bc"/>
      <stop offset=".52" stop-color="#3466a4"/>
      <stop offset=".66" stop-color="#414392"/>
      <stop offset=".79" stop-color="#4b2a84"/>
      <stop offset=".91" stop-color="#501b7c"/>
      <stop offset="1" stop-color="#53167a"/>
    </linearGradient>
    <clipPath id="clippath-1">
      <path class="cls-1" d="M329.82,146.65c-4.85,3.87-10.99,6.19-17.69,6.19-15.68,0-28.4-12.72-28.4-28.4s12.72-28.41,28.4-28.41c6.69,0,12.84,2.32,17.69,6.18,4.6-15.42,13.85-28.84,26.12-38.65-12.33-8.89-27.45-14.13-43.81-14.13-41.41,0-74.99,33.58-74.99,75.01s33.58,74.99,74.99,74.99c16.36,0,31.49-5.24,43.81-14.13-12.27-9.8-21.52-23.23-26.12-38.65Z"/>
    </clipPath>
    <radialGradient id="radial-gradient-2" cx="7272.13" cy="7454.97" fx="7272.13" fy="7454.97" r="77.3" gradientTransform="translate(7609.71 -6866.18) rotate(90.52) scale(.97)" gradientUnits="userSpaceOnUse">
      <stop offset=".45" stop-color="#fff" stop-opacity="0"/>
      <stop offset=".51" stop-color="#fff" stop-opacity=".07"/>
      <stop offset=".62" stop-color="#fff" stop-opacity=".26"/>
      <stop offset=".79" stop-color="#fff" stop-opacity=".57"/>
      <stop offset=".99" stop-color="#fff" stop-opacity=".98"/>
      <stop offset="1" stop-color="#fff"/>
    </radialGradient>
    <mask id="mask-1" x="237.13" y="49.44" width="150.21" height="150.2" maskUnits="userSpaceOnUse">
      <circle class="cls-5" cx="312.33" cy="124.64" r="75"/>
    </mask>
    <linearGradient id="New_Gradient_Swatch_1-2" data-name="New Gradient Swatch 1" x1="354.54" y1="185.01" x2="269.72" y2="63.88" xlink:href="#New_Gradient_Swatch_1"/>
  </defs>
  <g class="cls-7">
    <g id="Layer_1" data-name="Layer 1">
      <g>
        <path class="cls-10" d="M75.33,274.99h-13.28c-7.07,0-12.24-4.91-12.24-11.64v-26.72c0-6.72,5.17-11.64,12.24-11.64h13.45c7.16,0,12.07,5.52,12.07,12.16v3.02h-8.79v-3.79c0-1.73-1.47-3.19-3.02-3.19h-14.14c-1.55,0-3.02,1.47-3.02,3.19v27.33c0,1.72,1.47,3.19,3.02,3.19h14.14c1.55,0,3.02-1.47,3.02-3.19v-3.88h8.79v3.53c0,6.72-5.17,11.64-12.24,11.64Z"/>
        <path class="cls-10" d="M126.89,274.99h-15c-7.07,0-12.24-4.91-12.24-11.64v-26.72c0-6.72,5.17-11.64,12.24-11.64h15c7.07,0,12.24,4.91,12.24,11.64v26.72c0,6.72-5.17,11.64-12.24,11.64ZM130.51,236.2c0-1.72-1.47-3.19-3.02-3.19h-16.21c-1.55,0-3.02,1.47-3.02,3.19v27.59c0,1.72,1.47,3.19,3.02,3.19h16.21c1.55,0,3.02-1.47,3.02-3.19v-27.59Z"/>
        <path class="cls-10" d="M179.82,274.99v-16.72c0-3.19-.78-4.14-3.53-4.14h-16.55v20.86h-8.53v-50h25.17c7.07,0,12.24,4.91,12.24,11.64v5.43c0,4.22-1.9,6.55-3.36,7.84,1.55,1.12,3.36,3.36,3.36,7.24v17.85h-8.79ZM179.82,236.03c0-1.81-1.55-3.45-3.02-3.45h-17.07v13.28h16.12c3.19,0,3.97-.86,3.97-3.88v-5.95Z"/>
        <path class="cls-10" d="M200.69,274.99v-50h32.41v8.02h-23.79v12.93h18.45v8.19h-18.45v12.84h23.79v8.02h-32.41Z"/>
        <path class="cls-10" d="M278.71,264.82c0,6.12-4.31,10.17-10.26,10.17h-13.19c-5.95,0-10.26-4.4-10.26-10.52v-28.97c0-6.12,4.31-10.52,10.26-10.52h13.54c5.95,0,9.91,4.74,9.91,10.95v1.29h-4.74v-2.24c0-2.76-2.07-5.26-4.91-5.26h-14.22c-2.84,0-5.09,2.67-5.09,5.43v29.74c0,2.76,2.24,5.43,5.09,5.43h14.05c2.84,0,5.09-2.33,5.09-5.09v-2.59h4.74v2.16Z"/>
        <path class="cls-10" d="M315.6,274.99h-14.91c-5.95,0-10.26-4.4-10.26-10.52v-28.97c0-6.12,4.31-10.52,10.26-10.52h14.91c5.95,0,10.26,4.4,10.26,10.52v28.97c0,6.12-4.31,10.52-10.26,10.52ZM321.29,234.99c0-2.76-2.16-5.43-5-5.43h-16.21c-2.93,0-5.09,2.67-5.09,5.43v30c0,2.76,2.15,5.43,5,5.43h16.29c2.84,0,5-2.67,5-5.43v-30Z"/>
        <path class="cls-10" d="M337.59,274.99v-50h4.91v45.43h22.41v4.57h-27.33Z"/>
        <path class="cls-10" d="M374.92,274.99v-50h4.91v45.43h22.41v4.57h-27.33Z"/>
        <path class="cls-10" d="M412.24,274.99v-50h28.36v4.48h-23.79v18.28h18.45v4.57h-18.45v18.1h23.79v4.57h-28.36Z"/>
        <path class="cls-10" d="M486.04,264.82c0,6.12-4.31,10.17-10.26,10.17h-13.19c-5.95,0-10.26-4.4-10.26-10.52v-28.97c0-6.12,4.31-10.52,10.26-10.52h13.53c5.95,0,9.91,4.74,9.91,10.95v1.29h-4.74v-2.24c0-2.76-2.07-5.26-4.91-5.26h-14.22c-2.84,0-5.09,2.67-5.09,5.43v29.74c0,2.76,2.24,5.43,5.09,5.43h14.05c2.84,0,5.09-2.33,5.09-5.09v-2.59h4.74v2.16Z"/>
        <path class="cls-10" d="M515.44,229.48v45.52h-5.17v-45.52h-15.09v-4.48h35.43v4.48h-15.17Z"/>
        <path class="cls-10" d="M539.75,274.99v-4.14h7.24v-41.72h-7.24v-4.14h19.23v4.14h-7.33v41.72h7.33v4.14h-19.23Z"/>
        <path class="cls-10" d="M604.58,255.6c0,3.36-.6,5.17-2.67,7.41l-11.29,11.98h-5.95l-11.29-11.98c-2.07-2.24-2.67-4.05-2.67-7.41v-30.6h4.83v30.26c0,2.15.09,3.28,1.64,5l9.74,10.6h1.29l9.91-10.6c1.55-1.73,1.64-2.85,1.64-5v-30.26h4.83v30.6Z"/>
        <path class="cls-10" d="M616.82,274.99v-50h28.36v4.48h-23.79v18.28h18.45v4.57h-18.45v18.1h23.79v4.57h-28.36Z"/>
      </g>
      <g>
        <g class="cls-13">
          <g class="cls-3">
            <circle class="cls-11" cx="404.46" cy="124.43" r="75"/>
          </g>
        </g>
        <g class="cls-9">
          <g class="cls-8">
            <circle class="cls-4" cx="312.12" cy="124.43" r="75"/>
          </g>
          <g class="cls-12">
            <path class="cls-2" d="M358.29,183.53c-12.73,9.96-28.75,15.9-46.17,15.9-41.41,0-74.99-33.58-74.99-74.99s33.58-75.01,74.99-75.01c17.42,0,33.45,5.94,46.18,15.91-12.46,9.74-21.76,23.34-26.09,39-5.14-5.14-12.24-8.32-20.09-8.32-15.68,0-28.4,12.72-28.4,28.41s12.72,28.4,28.4,28.4c7.85,0,14.94-3.18,20.08-8.31,4.34,15.65,13.63,29.24,26.09,39Z"/>
          </g>
        </g>
      </g>
    </g>
  </g>
</svg>