<?xml version="1.0" encoding="UTF-8"?>
<svg xmlns="http://www.w3.org/2000/svg" xmlns:xlink="http://www.w3.org/1999/xlink" viewBox="0 0 695 370.59">
  <defs>
    <style>
      .cls-1, .cls-2 {
        fill: none;
      }

      .cls-3 {
        mask: url(#mask);
      }

      .cls-4 {
        fill: url(#New_Gradient_Swatch_1-2);
      }

      .cls-5 {
        fill: url(#radial-gradient-2);
      }

      .cls-6 {
        fill: url(#radial-gradient);
      }

      .cls-7 {
        isolation: isolate;
      }

      .cls-8 {
        mask: url(#mask-1);
      }

      .cls-9 {
        clip-path: url(#clippath-1);
      }

      .cls-10 {
        fill: #fff;
      }

      .cls-11 {
        fill: url(#New_Gradient_Swatch_1);
      }

      .cls-2, .cls-12 {
        mix-blend-mode: screen;
      }

      .cls-13 {
        clip-path: url(#clippath);
      }

      .cls-12 {
        opacity: .2;
      }
    </style>
    <clipPath id="clippath">
      <path class="cls-1" d="M457.49,71.4l-32.94,32.94c-5.14-5.14-12.24-8.32-20.09-8.32-15.69,0-28.41,12.72-28.41,28.41s12.72,28.41,28.41,28.41c7.84,0,14.95-3.18,20.09-8.32l32.94,32.94c-13.57,13.57-32.32,21.97-53.03,21.97-41.42,0-75-33.58-75-75s33.58-75,75-75c20.71,0,39.46,8.4,53.03,21.97h0Z"/>
    </clipPath>
    <radialGradient id="radial-gradient" cx="181.29" cy="122.53" fx="181.29" fy="122.53" r="77.3" gradientTransform="translate(229.84 3.74) rotate(.52) scale(.97)" gradientUnits="userSpaceOnUse">
      <stop offset=".4" stop-color="#fff" stop-opacity="0"/>
      <stop offset=".46" stop-color="#fff" stop-opacity=".07"/>
      <stop offset=".59" stop-color="#fff" stop-opacity=".26"/>
      <stop offset=".77" stop-color="#fff" stop-opacity=".57"/>
      <stop offset=".99" stop-color="#fff" stop-opacity=".98"/>
      <stop offset="1" stop-color="#fff"/>
    </radialGradient>
    <mask id="mask" x="329.46" y="49.22" width="150.2" height="150.21" maskUnits="userSpaceOnUse">
      <circle class="cls-6" cx="404.66" cy="124.22" r="75"/>
    </mask>
    <linearGradient id="New_Gradient_Swatch_1" data-name="New Gradient Swatch 1" x1="447.48" y1="62.99" x2="361.44" y2="185.87" gradientUnits="userSpaceOnUse">
      <stop offset="0" stop-color="#cff"/>
      <stop offset=".15" stop-color="#02eaea"/>
      <stop offset=".23" stop-color="#0ecad9"/>
      <stop offset=".38" stop-color="#2293bc"/>
      <stop offset=".52" stop-color="#3466a4"/>
      <stop offset=".66" stop-color="#414392"/>
      <stop offset=".79" stop-color="#4b2a84"/>
      <stop offset=".91" stop-color="#501b7c"/>
      <stop offset="1" stop-color="#53167a"/>
    </linearGradient>
    <clipPath id="clippath-1">
      <path class="cls-1" d="M329.82,146.65c-4.85,3.87-10.99,6.19-17.69,6.19-15.68,0-28.4-12.72-28.4-28.4s12.72-28.41,28.4-28.41c6.69,0,12.84,2.32,17.69,6.18,4.6-15.42,13.85-28.84,26.12-38.65-12.33-8.89-27.45-14.13-43.81-14.13-41.41,0-74.99,33.58-74.99,75.01s33.58,74.99,74.99,74.99c16.36,0,31.49-5.24,43.81-14.13-12.27-9.8-21.52-23.23-26.12-38.65Z"/>
    </clipPath>
    <radialGradient id="radial-gradient-2" cx="8106.56" cy="8306.93" fx="8106.56" fy="8306.93" r="77.3" gradientTransform="translate(8443.68 -7668.36) rotate(90.52) scale(.97)" gradientUnits="userSpaceOnUse">
      <stop offset=".45" stop-color="#fff" stop-opacity="0"/>
      <stop offset=".51" stop-color="#fff" stop-opacity=".07"/>
      <stop offset=".62" stop-color="#fff" stop-opacity=".26"/>
      <stop offset=".79" stop-color="#fff" stop-opacity=".57"/>
      <stop offset=".99" stop-color="#fff" stop-opacity=".98"/>
      <stop offset="1" stop-color="#fff"/>
    </radialGradient>
    <mask id="mask-1" x="237.13" y="49.44" width="150.21" height="150.2" maskUnits="userSpaceOnUse">
      <circle class="cls-5" cx="312.33" cy="124.64" r="75"/>
    </mask>
    <linearGradient id="New_Gradient_Swatch_1-2" data-name="New Gradient Swatch 1" x1="354.54" y1="185.01" x2="269.72" y2="63.88" xlink:href="#New_Gradient_Swatch_1"/>
  </defs>
  <g class="cls-7">
    <g id="Layer_1" data-name="Layer 1">
      <g>
        <path class="cls-10" d="M75.33,274.99h-13.28c-7.07,0-12.24-4.91-12.24-11.64v-26.72c0-6.72,5.17-11.64,12.24-11.64h13.45c7.16,0,12.07,5.52,12.07,12.16v3.02h-8.79v-3.79c0-1.73-1.47-3.19-3.02-3.19h-14.14c-1.55,0-3.02,1.47-3.02,3.19v27.33c0,1.72,1.47,3.19,3.02,3.19h14.14c1.55,0,3.02-1.47,3.02-3.19v-3.88h8.79v3.53c0,6.72-5.17,11.64-12.24,11.64Z"/>
        <path class="cls-10" d="M126.89,274.99h-15c-7.07,0-12.24-4.91-12.24-11.64v-26.72c0-6.72,5.17-11.64,12.24-11.64h15c7.07,0,12.24,4.91,12.24,11.64v26.72c0,6.72-5.17,11.64-12.24,11.64ZM130.51,236.2c0-1.72-1.47-3.19-3.02-3.19h-16.21c-1.55,0-3.02,1.47-3.02,3.19v27.59c0,1.72,1.47,3.19,3.02,3.19h16.21c1.55,0,3.02-1.47,3.02-3.19v-27.59Z"/>
        <path class="cls-10" d="M179.82,274.99v-16.72c0-3.19-.78-4.14-3.53-4.14h-16.55v20.86h-8.53v-50h25.17c7.07,0,12.24,4.91,12.24,11.64v5.43c0,4.22-1.9,6.55-3.36,7.84,1.55,1.12,3.36,3.36,3.36,7.24v17.85h-8.79ZM179.82,236.03c0-1.81-1.55-3.45-3.02-3.45h-17.07v13.28h16.12c3.19,0,3.97-.86,3.97-3.88v-5.95Z"/>
        <path class="cls-10" d="M200.69,274.99v-50h32.41v8.02h-23.79v12.93h18.45v8.19h-18.45v12.84h23.79v8.02h-32.41Z"/>
        <path class="cls-10" d="M278.71,264.82c0,6.12-4.31,10.17-10.26,10.17h-13.19c-5.95,0-10.26-4.4-10.26-10.52v-28.97c0-6.12,4.31-10.52,10.26-10.52h13.54c5.95,0,9.91,4.74,9.91,10.95v1.29h-4.74v-2.24c0-2.76-2.07-5.26-4.91-5.26h-14.22c-2.84,0-5.09,2.67-5.09,5.43v29.74c0,2.76,2.24,5.43,5.09,5.43h14.05c2.84,0,5.09-2.33,5.09-5.09v-2.59h4.74v2.16Z"/>
        <path class="cls-10" d="M315.6,274.99h-14.91c-5.95,0-10.26-4.4-10.26-10.52v-28.97c0-6.12,4.31-10.52,10.26-10.52h14.91c5.95,0,10.26,4.4,10.26,10.52v28.97c0,6.12-4.31,10.52-10.26,10.52ZM321.29,234.99c0-2.76-2.16-5.43-5-5.43h-16.21c-2.93,0-5.09,2.67-5.09,5.43v30c0,2.76,2.15,5.43,5,5.43h16.29c2.84,0,5-2.67,5-5.43v-30Z"/>
        <path class="cls-10" d="M337.59,274.99v-50h4.91v45.43h22.41v4.57h-27.33Z"/>
        <path class="cls-10" d="M374.92,274.99v-50h4.91v45.43h22.41v4.57h-27.33Z"/>
        <path class="cls-10" d="M412.24,274.99v-50h28.36v4.48h-23.79v18.28h18.45v4.57h-18.45v18.1h23.79v4.57h-28.36Z"/>
        <path class="cls-10" d="M486.04,264.82c0,6.12-4.31,10.17-10.26,10.17h-13.19c-5.95,0-10.26-4.4-10.26-10.52v-28.97c0-6.12,4.31-10.52,10.26-10.52h13.53c5.95,0,9.91,4.74,9.91,10.95v1.29h-4.74v-2.24c0-2.76-2.07-5.26-4.91-5.26h-14.22c-2.84,0-5.09,2.67-5.09,5.43v29.74c0,2.76,2.24,5.43,5.09,5.43h14.05c2.84,0,5.09-2.33,5.09-5.09v-2.59h4.74v2.16Z"/>
        <path class="cls-10" d="M515.44,229.48v45.52h-5.17v-45.52h-15.09v-4.48h35.43v4.48h-15.17Z"/>
        <path class="cls-10" d="M539.75,274.99v-4.14h7.24v-41.72h-7.24v-4.14h19.23v4.14h-7.33v41.72h7.33v4.14h-19.23Z"/>
        <path class="cls-10" d="M604.58,255.6c0,3.36-.6,5.17-2.67,7.41l-11.29,11.98h-5.95l-11.29-11.98c-2.07-2.24-2.67-4.05-2.67-7.41v-30.6h4.83v30.26c0,2.15.09,3.28,1.64,5l9.74,10.6h1.29l9.91-10.6c1.55-1.73,1.64-2.85,1.64-5v-30.26h4.83v30.6Z"/>
        <path class="cls-10" d="M616.82,274.99v-50h28.36v4.48h-23.79v18.28h18.45v4.57h-18.45v18.1h23.79v4.57h-28.36Z"/>
      </g>
      <g>
        <g class="cls-13">
          <g class="cls-3">
            <circle class="cls-11" cx="404.46" cy="124.43" r="75"/>
          </g>
        </g>
        <g class="cls-9">
          <g class="cls-8">
            <circle class="cls-4" cx="312.12" cy="124.43" r="75"/>
          </g>
          <g class="cls-12">
            <path class="cls-2" d="M358.29,183.53c-12.73,9.96-28.75,15.9-46.17,15.9-41.41,0-74.99-33.58-74.99-74.99s33.58-75.01,74.99-75.01c17.42,0,33.45,5.94,46.18,15.91-12.46,9.74-21.76,23.34-26.09,39-5.14-5.14-12.24-8.32-20.09-8.32-15.68,0-28.4,12.72-28.4,28.41s12.72,28.4,28.4,28.4c7.85,0,14.94-3.18,20.08-8.31,4.34,15.65,13.63,29.24,26.09,39Z"/>
          </g>
        </g>
      </g>
      <g>
        <path class="cls-10" d="M55.14,315.08l-4.28-14h1.7l3.5,11.42,3.38-11.42h1.68l3.32,11.38,3.54-11.38h1.7l-4.34,14h-1.82l-3.24-11.26-3.34,11.26h-1.8Z"/>
        <path class="cls-10" d="M71.28,315.08v-14h1.6v5.46c.33-.55.77-.97,1.3-1.26s1.15-.44,1.86-.44c.77,0,1.45.16,2.04.47.59.31,1.04.81,1.37,1.49.33.68.48,1.57.47,2.68v5.6h-1.6v-5.12c0-.99-.12-1.74-.35-2.26-.23-.52-.55-.88-.95-1.07s-.85-.29-1.36-.29c-.88,0-1.56.31-2.05.93-.49.62-.73,1.5-.73,2.63v5.18h-1.6Z"/>
        <path class="cls-10" d="M86.82,315.32c-.97,0-1.83-.22-2.58-.67-.75-.45-1.33-1.06-1.75-1.85-.42-.79-.63-1.69-.63-2.72s.21-1.93.63-2.72c.42-.79,1-1.4,1.74-1.85.74-.45,1.59-.67,2.55-.67s1.74.23,2.42.69c.68.46,1.21,1.1,1.58,1.93.37.83.56,1.8.56,2.92h-7.86c.07,1.09.41,1.95,1.04,2.56.63.61,1.42.92,2.38.92.71,0,1.3-.17,1.79-.5s.86-.77,1.13-1.32l1.38.7c-.25.52-.59.97-1.01,1.36-.42.39-.91.69-1.48.9-.57.21-1.2.32-1.89.32ZM83.6,309.04h6.02c-.04-.57-.19-1.07-.45-1.48-.26-.41-.6-.73-1.01-.96-.41-.23-.88-.34-1.4-.34s-.99.11-1.46.33c-.47.22-.85.54-1.16.96-.31.42-.49.92-.54,1.49Z"/>
        <path class="cls-10" d="M93.36,315.08v-10h1.6v1.78c.4-.63.92-1.09,1.55-1.38.63-.29,1.3-.44,1.99-.44v1.5c-.59,0-1.15.1-1.69.29s-.98.51-1.33.95c-.35.44-.52,1.04-.52,1.8v5.5h-1.6Z"/>
        <path class="cls-10" d="M104.5,315.32c-.97,0-1.83-.22-2.58-.67-.75-.45-1.33-1.06-1.75-1.85-.42-.79-.63-1.69-.63-2.72s.21-1.93.63-2.72c.42-.79,1-1.4,1.74-1.85.74-.45,1.59-.67,2.55-.67s1.74.23,2.42.69c.68.46,1.21,1.1,1.58,1.93.37.83.56,1.8.56,2.92h-7.86c.07,1.09.41,1.95,1.04,2.56.63.61,1.42.92,2.38.92.71,0,1.3-.17,1.79-.5s.86-.77,1.13-1.32l1.38.7c-.25.52-.59.97-1.01,1.36-.42.39-.91.69-1.48.9-.57.21-1.2.32-1.89.32ZM101.28,309.04h6.02c-.04-.57-.19-1.07-.45-1.48-.26-.41-.6-.73-1.01-.96-.41-.23-.88-.34-1.4-.34s-.99.11-1.46.33c-.47.22-.85.54-1.16.96-.31.42-.49.92-.54,1.49Z"/>
        <path class="cls-10" d="M119.74,315.32c-.97,0-1.73-.25-2.26-.76s-.8-1.22-.8-2.14v-5.92h-1.74v-1.42h1.74v-3.12h1.6v3.12h3v1.42h-3v5.76c0,.51.14.9.41,1.17.27.27.66.41,1.15.41.16,0,.32-.02.47-.07s.36-.16.61-.35l.62,1.3c-.35.23-.66.38-.94.47-.28.09-.57.13-.86.13Z"/>
        <path class="cls-10" d="M123.54,315.08v-14h1.6v5.46c.33-.55.77-.97,1.3-1.26s1.15-.44,1.86-.44c.77,0,1.45.16,2.04.47.59.31,1.04.81,1.37,1.49.33.68.48,1.57.47,2.68v5.6h-1.6v-5.12c0-.99-.12-1.74-.35-2.26-.23-.52-.55-.88-.95-1.07s-.85-.29-1.36-.29c-.88,0-1.56.31-2.05.93-.49.62-.73,1.5-.73,2.63v5.18h-1.6Z"/>
        <path class="cls-10" d="M139.08,315.32c-.97,0-1.83-.22-2.58-.67-.75-.45-1.33-1.06-1.75-1.85-.42-.79-.63-1.69-.63-2.72s.21-1.93.63-2.72c.42-.79,1-1.4,1.74-1.85.74-.45,1.59-.67,2.55-.67s1.74.23,2.42.69c.68.46,1.21,1.1,1.58,1.93.37.83.56,1.8.56,2.92h-7.86c.07,1.09.41,1.95,1.04,2.56.63.61,1.42.92,2.38.92.71,0,1.3-.17,1.79-.5s.86-.77,1.13-1.32l1.38.7c-.25.52-.59.97-1.01,1.36-.42.39-.91.69-1.48.9-.57.21-1.2.32-1.89.32ZM135.86,309.04h6.02c-.04-.57-.19-1.07-.45-1.48-.26-.41-.6-.73-1.01-.96-.41-.23-.88-.34-1.4-.34s-.99.11-1.46.33c-.47.22-.85.54-1.16.96-.31.42-.49.92-.54,1.49Z"/>
        <path class="cls-10" d="M149.34,315.08l5.7-14h1.76l5.7,14h-1.78l-1.62-3.98h-6.34l-1.62,3.98h-1.8ZM153.34,309.58h5.16l-2.58-6.38-2.58,6.38Z"/>
        <path class="cls-10" d="M164.1,315.08v-10h1.6v1.78c.4-.63.92-1.09,1.55-1.38.63-.29,1.3-.44,1.99-.44v1.5c-.59,0-1.15.1-1.69.29s-.98.51-1.33.95c-.35.44-.52,1.04-.52,1.8v5.5h-1.6Z"/>
        <path class="cls-10" d="M170.86,315.08v-10h1.5l.08,1.4c.31-.53.7-.94,1.18-1.22.48-.28,1.04-.42,1.68-.42.8,0,1.48.19,2.05.56.57.37.98.94,1.23,1.7.28-.73.69-1.29,1.23-1.68s1.18-.58,1.93-.58c1.12,0,2,.37,2.65,1.12.65.75.96,1.88.95,3.4v5.72h-1.6v-5.12c0-.99-.1-1.74-.31-2.26-.21-.52-.48-.88-.83-1.07-.35-.19-.75-.29-1.2-.29-.79,0-1.4.31-1.84.93-.44.62-.66,1.5-.66,2.63v5.18h-1.6v-5.12c0-.99-.1-1.74-.31-2.26-.21-.52-.49-.88-.84-1.07-.35-.19-.76-.29-1.21-.29-.77,0-1.38.31-1.82.93-.44.62-.66,1.5-.66,2.63v5.18h-1.6Z"/>
        <path class="cls-10" d="M193.28,315.08v-14h8.28v1.54h-6.58v4.52h6v1.52h-6v4.88h6.62v1.54h-8.32Z"/>
        <path class="cls-10" d="M209.12,315.32c-.99,0-1.86-.22-2.62-.67-.76-.45-1.35-1.06-1.78-1.85-.43-.79-.64-1.69-.64-2.72s.21-1.93.63-2.72c.42-.79,1.01-1.4,1.77-1.85.76-.45,1.63-.67,2.6-.67s1.82.22,2.58.66c.76.44,1.34,1.06,1.74,1.86l-1.46.66c-.27-.53-.65-.95-1.16-1.25-.51-.3-1.09-.45-1.74-.45s-1.23.16-1.73.48c-.5.32-.89.76-1.18,1.33-.29.57-.43,1.22-.43,1.95s.14,1.38.43,1.95c.29.57.69,1.01,1.2,1.33.51.32,1.1.48,1.75.48s1.24-.17,1.75-.5c.51-.33.9-.8,1.17-1.4l1.46.66c-.4.85-.98,1.52-1.74,2-.76.48-1.63.72-2.6.72Z"/>
        <path class="cls-10" d="M219.92,315.32c-.99,0-1.86-.22-2.61-.67-.75-.45-1.34-1.06-1.77-1.85-.43-.79-.64-1.69-.64-2.72s.21-1.93.63-2.72c.42-.79,1.01-1.4,1.76-1.85.75-.45,1.62-.67,2.59-.67s1.84.22,2.59.67c.75.45,1.34,1.06,1.76,1.85.42.79.63,1.69.63,2.72s-.21,1.93-.63,2.72c-.42.79-1,1.4-1.75,1.85-.75.45-1.6.67-2.56.67ZM219.9,313.84c.65,0,1.23-.16,1.73-.48.5-.32.89-.76,1.18-1.33s.43-1.22.43-1.95-.14-1.38-.43-1.95c-.29-.57-.68-1.01-1.19-1.33-.51-.32-1.09-.48-1.76-.48s-1.23.16-1.73.48c-.5.32-.89.76-1.18,1.32-.29.56-.43,1.21-.43,1.96s.14,1.38.43,1.95c.29.57.69,1.01,1.2,1.33.51.32,1.1.48,1.75.48Z"/>
        <path class="cls-10" d="M230.58,315.32c-.73,0-1.37-.11-1.92-.33-.55-.22-1-.51-1.37-.87s-.63-.75-.79-1.18l1.4-.58c.23.45.57.82,1.02,1.1.45.28.95.42,1.5.42.63,0,1.15-.12,1.58-.37.43-.25.64-.6.64-1.05,0-.41-.16-.75-.47-1-.31-.25-.78-.46-1.39-.62l-.96-.26c-.91-.24-1.61-.6-2.12-1.09-.51-.49-.76-1.04-.76-1.65,0-.95.31-1.68.93-2.21.62-.53,1.54-.79,2.77-.79.59,0,1.12.09,1.6.26.48.17.89.42,1.24.73s.6.68.76,1.11l-1.4.62c-.17-.45-.46-.78-.86-.98-.4-.2-.89-.3-1.46-.3-.61,0-1.09.13-1.44.39s-.52.62-.52,1.09c0,.27.14.52.43.75.29.23.71.42,1.27.57l1,.26c.65.16,1.2.4,1.64.71.44.31.77.67,1,1.07.23.4.34.83.34,1.28,0,.6-.16,1.12-.48,1.56-.32.44-.75.78-1.3,1.01-.55.23-1.17.35-1.88.35Z"/>
        <path class="cls-10" d="M237.3,319.32c-.25,0-.55-.05-.88-.15-.33-.1-.69-.23-1.06-.39l.6-1.34c.31.13.58.23.81.3.23.07.42.1.55.1.36,0,.66-.1.89-.29s.43-.47.59-.83l.68-1.68-4.3-9.96h1.7l3.4,8.1,3.36-8.1h1.72l-4.8,11.4c-.25.59-.52,1.09-.79,1.52-.27.43-.6.75-.99.98-.39.23-.88.34-1.48.34Z"/>
        <path class="cls-10" d="M250.42,315.32c-.73,0-1.37-.11-1.92-.33-.55-.22-1-.51-1.37-.87s-.63-.75-.79-1.18l1.4-.58c.23.45.57.82,1.02,1.1.45.28.95.42,1.5.42.63,0,1.15-.12,1.58-.37.43-.25.64-.6.64-1.05,0-.41-.16-.75-.47-1-.31-.25-.78-.46-1.39-.62l-.96-.26c-.91-.24-1.61-.6-2.12-1.09-.51-.49-.76-1.04-.76-1.65,0-.95.31-1.68.93-2.21.62-.53,1.54-.79,2.77-.79.59,0,1.12.09,1.6.26.48.17.89.42,1.24.73s.6.68.76,1.11l-1.4.62c-.17-.45-.46-.78-.86-.98-.4-.2-.89-.3-1.46-.3-.61,0-1.09.13-1.44.39s-.52.62-.52,1.09c0,.27.14.52.43.75.29.23.71.42,1.27.57l1,.26c.65.16,1.2.4,1.64.71.44.31.77.67,1,1.07.23.4.34.83.34,1.28,0,.6-.16,1.12-.48,1.56-.32.44-.75.78-1.3,1.01-.55.23-1.17.35-1.88.35Z"/>
        <path class="cls-10" d="M260,315.32c-.97,0-1.73-.25-2.26-.76s-.8-1.22-.8-2.14v-5.92h-1.74v-1.42h1.74v-3.12h1.6v3.12h3v1.42h-3v5.76c0,.51.14.9.41,1.17.27.27.66.41,1.15.41.16,0,.32-.02.47-.07s.36-.16.61-.35l.62,1.3c-.35.23-.66.38-.94.47-.28.09-.57.13-.86.13Z"/>
        <path class="cls-10" d="M268.12,315.32c-.97,0-1.83-.22-2.58-.67-.75-.45-1.33-1.06-1.75-1.85-.42-.79-.63-1.69-.63-2.72s.21-1.93.63-2.72c.42-.79,1-1.4,1.74-1.85.74-.45,1.59-.67,2.55-.67s1.74.23,2.42.69c.68.46,1.21,1.1,1.58,1.93.37.83.56,1.8.56,2.92h-7.86c.07,1.09.41,1.95,1.04,2.56.63.61,1.42.92,2.38.92.71,0,1.3-.17,1.79-.5s.86-.77,1.13-1.32l1.38.7c-.25.52-.59.97-1.01,1.36-.42.39-.91.69-1.48.9-.57.21-1.2.32-1.89.32ZM264.9,309.04h6.02c-.04-.57-.19-1.07-.45-1.48-.26-.41-.6-.73-1.01-.96-.41-.23-.88-.34-1.4-.34s-.99.11-1.46.33c-.47.22-.85.54-1.16.96-.31.42-.49.92-.54,1.49Z"/>
        <path class="cls-10" d="M274.66,315.08v-10h1.5l.08,1.4c.31-.53.7-.94,1.18-1.22.48-.28,1.04-.42,1.68-.42.8,0,1.48.19,2.05.56.57.37.98.94,1.23,1.7.28-.73.69-1.29,1.23-1.68s1.18-.58,1.93-.58c1.12,0,2,.37,2.65,1.12.65.75.96,1.88.95,3.4v5.72h-1.6v-5.12c0-.99-.1-1.74-.31-2.26-.21-.52-.48-.88-.83-1.07-.35-.19-.75-.29-1.2-.29-.79,0-1.4.31-1.84.93-.44.62-.66,1.5-.66,2.63v5.18h-1.6v-5.12c0-.99-.1-1.74-.31-2.26-.21-.52-.49-.88-.84-1.07-.35-.19-.76-.29-1.21-.29-.77,0-1.38.31-1.82.93-.44.62-.66,1.5-.66,2.63v5.18h-1.6Z"/>
        <path class="cls-10" d="M301.6,315.32c-.73,0-1.39-.17-1.96-.52s-1.05-.82-1.42-1.42l-.08,1.7h-1.52v-14h1.6v5.68c.37-.6.85-1.07,1.42-1.41.57-.34,1.23-.51,1.96-.51.89,0,1.68.22,2.36.66.68.44,1.21,1.05,1.59,1.84.38.79.57,1.7.57,2.74s-.19,1.94-.57,2.73c-.38.79-.91,1.41-1.59,1.85-.68.44-1.47.66-2.36.66ZM301.24,313.86c.63,0,1.18-.16,1.67-.48.49-.32.87-.76,1.16-1.33.29-.57.43-1.22.43-1.97s-.14-1.39-.41-1.96c-.27-.57-.65-1.02-1.14-1.34-.49-.32-1.05-.48-1.69-.48-.59,0-1.11.16-1.57.48-.46.32-.82.76-1.08,1.33-.26.57-.39,1.22-.39,1.97s.13,1.39.39,1.96c.26.57.62,1.02,1.07,1.34.45.32.97.48,1.56.48Z"/>
        <path class="cls-10" d="M311.96,315.32c-.77,0-1.45-.16-2.03-.47-.58-.31-1.03-.81-1.36-1.5-.33-.69-.49-1.58-.49-2.67v-5.6h1.6v5.12c0,.99.11,1.74.34,2.26.23.52.54.88.95,1.07s.86.29,1.37.29c.87,0,1.54-.31,2.03-.94.49-.63.73-1.5.73-2.62v-5.18h1.6v10h-1.5l-.08-1.5c-.33.56-.77.99-1.3,1.29s-1.15.45-1.86.45Z"/>
        <path class="cls-10" d="M320.42,302.76c-.27,0-.5-.1-.7-.3-.2-.2-.3-.43-.3-.7s.1-.52.3-.71c.2-.19.43-.29.7-.29.28,0,.52.1.71.29.19.19.29.43.29.71s-.1.5-.29.7-.43.3-.71.3ZM319.6,315.08v-10h1.6v10h-1.6Z"/>
        <path class="cls-10" d="M324.14,315.08v-14h1.6v14h-1.6Z"/>
        <path class="cls-10" d="M332.48,315.32c-.89,0-1.68-.22-2.36-.66-.68-.44-1.21-1.06-1.59-1.85-.38-.79-.57-1.7-.57-2.73s.19-1.95.57-2.74c.38-.79.91-1.4,1.59-1.84.68-.44,1.47-.66,2.36-.66.73,0,1.39.17,1.97.51.58.34,1.05.81,1.41,1.41v-5.68h1.6v14h-1.52l-.08-1.7c-.36.6-.83,1.07-1.41,1.42s-1.24.52-1.97.52ZM332.84,313.86c.59,0,1.1-.16,1.55-.47.45-.31.8-.75,1.06-1.32.26-.57.4-1.2.41-1.91v-.14c-.01-.72-.15-1.36-.41-1.93-.26-.57-.62-1.01-1.07-1.32-.45-.31-.97-.47-1.56-.47-.63,0-1.19.16-1.68.48-.49.32-.88.77-1.15,1.34-.27.57-.41,1.23-.41,1.96s.14,1.39.42,1.96c.28.57.67,1.02,1.16,1.34.49.32,1.05.48,1.68.48Z"/>
        <path class="cls-10" d="M343.76,315.32c-.73,0-1.37-.11-1.92-.33-.55-.22-1-.51-1.37-.87s-.63-.75-.79-1.18l1.4-.58c.23.45.57.82,1.02,1.1.45.28.95.42,1.5.42.63,0,1.15-.12,1.58-.37.43-.25.64-.6.64-1.05,0-.41-.16-.75-.47-1-.31-.25-.78-.46-1.39-.62l-.96-.26c-.91-.24-1.61-.6-2.12-1.09-.51-.49-.76-1.04-.76-1.65,0-.95.31-1.68.93-2.21.62-.53,1.54-.79,2.77-.79.59,0,1.12.09,1.6.26.48.17.89.42,1.24.73s.6.68.76,1.11l-1.4.62c-.17-.45-.46-.78-.86-.98-.4-.2-.89-.3-1.46-.3-.61,0-1.09.13-1.44.39s-.52.62-.52,1.09c0,.27.14.52.43.75.29.23.71.42,1.27.57l1,.26c.65.16,1.2.4,1.64.71.44.31.77.67,1,1.07.23.4.34.83.34,1.28,0,.6-.16,1.12-.48,1.56-.32.44-.75.78-1.3,1.01-.55.23-1.17.35-1.88.35Z"/>
        <path class="cls-10" d="M355.44,302.76c-.27,0-.5-.1-.7-.3-.2-.2-.3-.43-.3-.7s.1-.52.3-.71c.2-.19.43-.29.7-.29.28,0,.52.1.71.29.19.19.29.43.29.71s-.1.5-.29.7-.43.3-.71.3ZM354.62,315.08v-10h1.6v10h-1.6Z"/>
        <path class="cls-10" d="M359.16,315.08v-10h1.5l.08,1.5c.33-.56.77-.99,1.3-1.29s1.15-.45,1.86-.45c.79,0,1.47.16,2.05.47.58.31,1.03.81,1.36,1.49.33.68.48,1.57.47,2.68v5.6h-1.6v-5.12c0-.99-.11-1.74-.34-2.26-.23-.52-.54-.88-.94-1.07s-.85-.29-1.36-.29c-.88,0-1.56.31-2.05.93-.49.62-.73,1.5-.73,2.63v5.18h-1.6Z"/>
        <path class="cls-10" d="M374.08,315.32c-.97,0-1.73-.25-2.26-.76s-.8-1.22-.8-2.14v-5.92h-1.74v-1.42h1.74v-3.12h1.6v3.12h3v1.42h-3v5.76c0,.51.14.9.41,1.17.27.27.66.41,1.15.41.16,0,.32-.02.47-.07s.36-.16.61-.35l.62,1.3c-.35.23-.66.38-.94.47-.28.09-.57.13-.86.13Z"/>
        <path class="cls-10" d="M382.2,315.32c-.97,0-1.83-.22-2.58-.67-.75-.45-1.33-1.06-1.75-1.85-.42-.79-.63-1.69-.63-2.72s.21-1.93.63-2.72c.42-.79,1-1.4,1.74-1.85.74-.45,1.59-.67,2.55-.67s1.74.23,2.42.69c.68.46,1.21,1.1,1.58,1.93.37.83.56,1.8.56,2.92h-7.86c.07,1.09.41,1.95,1.04,2.56.63.61,1.42.92,2.38.92.71,0,1.3-.17,1.79-.5s.86-.77,1.13-1.32l1.38.7c-.25.52-.59.97-1.01,1.36-.42.39-.91.69-1.48.9-.57.21-1.2.32-1.89.32ZM378.98,309.04h6.02c-.04-.57-.19-1.07-.45-1.48-.26-.41-.6-.73-1.01-.96-.41-.23-.88-.34-1.4-.34s-.99.11-1.46.33c-.47.22-.85.54-1.16.96-.31.42-.49.92-.54,1.49Z"/>
        <path class="cls-10" d="M388.74,315.08v-14h1.6v14h-1.6Z"/>
        <path class="cls-10" d="M393.14,315.08v-14h1.6v14h-1.6Z"/>
        <path class="cls-10" d="M398.46,302.76c-.27,0-.5-.1-.7-.3-.2-.2-.3-.43-.3-.7s.1-.52.3-.71c.2-.19.43-.29.7-.29.28,0,.52.1.71.29.19.19.29.43.29.71s-.1.5-.29.7-.43.3-.71.3ZM397.64,315.08v-10h1.6v10h-1.6Z"/>
        <path class="cls-10" d="M406.18,319.32c-.64,0-1.22-.06-1.75-.19s-.97-.27-1.34-.42-.63-.28-.79-.39l.6-1.3c.17.09.42.21.74.35.32.14.7.26,1.13.36.43.1.9.15,1.39.15.64,0,1.22-.13,1.73-.39s.91-.67,1.2-1.22c.29-.55.43-1.26.43-2.13v-1.06c-.36.6-.83,1.07-1.42,1.41s-1.25.51-1.98.51c-.89,0-1.68-.21-2.36-.64s-1.21-1.02-1.59-1.79c-.38-.77-.57-1.64-.57-2.63s.19-1.9.57-2.67c.38-.77.91-1.36,1.59-1.79s1.47-.64,2.36-.64c.73,0,1.39.17,1.98.5.59.33,1.06.81,1.42,1.42v-1.68h1.6v9.04c0,1.15-.21,2.11-.64,2.88-.43.77-1.01,1.35-1.76,1.74s-1.59.58-2.54.58ZM406.5,313.62c.59,0,1.11-.16,1.56-.48.45-.32.81-.76,1.06-1.31.25-.55.38-1.2.38-1.93s-.13-1.34-.39-1.89c-.26-.55-.61-.99-1.06-1.3s-.97-.47-1.57-.47-1.18.16-1.67.47-.87.75-1.14,1.3c-.27.55-.41,1.18-.41,1.89s.14,1.38.42,1.93c.28.55.66.99,1.15,1.31.49.32,1.04.48,1.67.48Z"/>
        <path class="cls-10" d="M418.29,315.32c-.97,0-1.83-.22-2.58-.67-.75-.45-1.33-1.06-1.75-1.85-.42-.79-.63-1.69-.63-2.72s.21-1.93.63-2.72c.42-.79,1-1.4,1.74-1.85.74-.45,1.59-.67,2.55-.67s1.74.23,2.42.69c.68.46,1.21,1.1,1.58,1.93.37.83.56,1.8.56,2.92h-7.86c.07,1.09.41,1.95,1.04,2.56.63.61,1.42.92,2.38.92.71,0,1.3-.17,1.79-.5s.86-.77,1.13-1.32l1.38.7c-.25.52-.59.97-1.01,1.36-.42.39-.91.69-1.48.9-.57.21-1.2.32-1.89.32ZM415.08,309.04h6.02c-.04-.57-.19-1.07-.45-1.48-.26-.41-.6-.73-1.01-.96-.41-.23-.88-.34-1.4-.34s-.99.11-1.46.33c-.47.22-.85.54-1.16.96-.31.42-.49.92-.54,1.49Z"/>
        <path class="cls-10" d="M424.83,315.08v-10h1.5l.08,1.5c.33-.56.77-.99,1.3-1.29s1.15-.45,1.86-.45c.79,0,1.47.16,2.05.47.58.31,1.03.81,1.36,1.49.33.68.48,1.57.47,2.68v5.6h-1.6v-5.12c0-.99-.11-1.74-.34-2.26-.23-.52-.54-.88-.94-1.07s-.85-.29-1.36-.29c-.88,0-1.56.31-2.05.93-.49.62-.73,1.5-.73,2.63v5.18h-1.6Z"/>
        <path class="cls-10" d="M440.45,315.32c-.99,0-1.86-.22-2.62-.67-.76-.45-1.35-1.06-1.78-1.85-.43-.79-.64-1.69-.64-2.72s.21-1.93.63-2.72c.42-.79,1.01-1.4,1.77-1.85.76-.45,1.63-.67,2.6-.67s1.82.22,2.58.66c.76.44,1.34,1.06,1.74,1.86l-1.46.66c-.27-.53-.65-.95-1.16-1.25-.51-.3-1.09-.45-1.74-.45s-1.23.16-1.73.48c-.5.32-.89.76-1.18,1.33-.29.57-.43,1.22-.43,1.95s.14,1.38.43,1.95c.29.57.69,1.01,1.2,1.33.51.32,1.1.48,1.75.48s1.24-.17,1.75-.5c.51-.33.9-.8,1.17-1.4l1.46.66c-.4.85-.98,1.52-1.74,2-.76.48-1.63.72-2.6.72Z"/>
        <path class="cls-10" d="M451.19,315.32c-.97,0-1.83-.22-2.58-.67-.75-.45-1.33-1.06-1.75-1.85-.42-.79-.63-1.69-.63-2.72s.21-1.93.63-2.72c.42-.79,1-1.4,1.74-1.85.74-.45,1.59-.67,2.55-.67s1.74.23,2.42.69c.68.46,1.21,1.1,1.58,1.93.37.83.56,1.8.56,2.92h-7.86c.07,1.09.41,1.95,1.04,2.56.63.61,1.42.92,2.38.92.71,0,1.3-.17,1.79-.5s.86-.77,1.13-1.32l1.38.7c-.25.52-.59.97-1.01,1.36-.42.39-.91.69-1.48.9-.57.21-1.2.32-1.89.32ZM447.97,309.04h6.02c-.04-.57-.19-1.07-.45-1.48-.26-.41-.6-.73-1.01-.96-.41-.23-.88-.34-1.4-.34s-.99.11-1.46.33c-.47.22-.85.54-1.16.96-.31.42-.49.92-.54,1.49Z"/>
        <path class="cls-10" d="M457.13,317.38l1.14-4.22h1.8l-1.56,4.22h-1.38Z"/>
        <path class="cls-10" d="M471.57,315.32c-.97,0-1.83-.22-2.58-.67-.75-.45-1.33-1.06-1.75-1.85-.42-.79-.63-1.69-.63-2.72s.21-1.93.63-2.72c.42-.79,1-1.4,1.74-1.85.74-.45,1.59-.67,2.55-.67s1.74.23,2.42.69c.68.46,1.21,1.1,1.58,1.93.37.83.56,1.8.56,2.92h-7.86c.07,1.09.41,1.95,1.04,2.56.63.61,1.42.92,2.38.92.71,0,1.3-.17,1.79-.5s.86-.77,1.13-1.32l1.38.7c-.25.52-.59.97-1.01,1.36-.42.39-.91.69-1.48.9-.57.21-1.2.32-1.89.32ZM468.35,309.04h6.02c-.04-.57-.19-1.07-.45-1.48-.26-.41-.6-.73-1.01-.96-.41-.23-.88-.34-1.4-.34s-.99.11-1.46.33c-.47.22-.85.54-1.16.96-.31.42-.49.92-.54,1.49Z"/>
        <path class="cls-10" d="M479.11,315.08v-8.62h-1.84v-1.38h1.84v-1.14c0-1.04.24-1.82.73-2.35.49-.53,1.23-.79,2.23-.79.27,0,.57.05.9.14.33.09.69.23,1.06.4l-.6,1.26c-.31-.12-.57-.21-.78-.28s-.39-.1-.54-.1c-.47,0-.82.15-1.05.45-.23.3-.35.76-.35,1.39v1.02h2.9v1.38h-2.9v8.62h-1.6Z"/>
        <path class="cls-10" d="M486.49,315.08v-8.62h-1.84v-1.38h1.84v-1.14c0-1.04.24-1.82.73-2.35.49-.53,1.23-.79,2.23-.79.27,0,.57.05.9.14.33.09.69.23,1.06.4l-.6,1.26c-.31-.12-.57-.21-.78-.28s-.39-.1-.54-.1c-.47,0-.82.15-1.05.45-.23.3-.35.76-.35,1.39v1.02h2.9v1.38h-2.9v8.62h-1.6Z"/>
        <path class="cls-10" d="M493.79,302.76c-.27,0-.5-.1-.7-.3-.2-.2-.3-.43-.3-.7s.1-.52.3-.71c.2-.19.43-.29.7-.29.28,0,.52.1.71.29.19.19.29.43.29.71s-.1.5-.29.7-.43.3-.71.3ZM492.97,315.08v-10h1.6v10h-1.6Z"/>
        <path class="cls-10" d="M501.97,315.32c-.99,0-1.86-.22-2.62-.67-.76-.45-1.35-1.06-1.78-1.85-.43-.79-.64-1.69-.64-2.72s.21-1.93.63-2.72c.42-.79,1.01-1.4,1.77-1.85.76-.45,1.63-.67,2.6-.67s1.82.22,2.58.66c.76.44,1.34,1.06,1.74,1.86l-1.46.66c-.27-.53-.65-.95-1.16-1.25-.51-.3-1.09-.45-1.74-.45s-1.23.16-1.73.48c-.5.32-.89.76-1.18,1.33-.29.57-.43,1.22-.43,1.95s.14,1.38.43,1.95c.29.57.69,1.01,1.2,1.33.51.32,1.1.48,1.75.48s1.24-.17,1.75-.5c.51-.33.9-.8,1.17-1.4l1.46.66c-.4.85-.98,1.52-1.74,2-.76.48-1.63.72-2.6.72Z"/>
        <path class="cls-10" d="M509.25,302.76c-.27,0-.5-.1-.7-.3-.2-.2-.3-.43-.3-.7s.1-.52.3-.71c.2-.19.43-.29.7-.29.28,0,.52.1.71.29.19.19.29.43.29.71s-.1.5-.29.7-.43.3-.71.3ZM508.43,315.08v-10h1.6v10h-1.6Z"/>
        <path class="cls-10" d="M517.35,315.32c-.97,0-1.83-.22-2.58-.67-.75-.45-1.33-1.06-1.75-1.85-.42-.79-.63-1.69-.63-2.72s.21-1.93.63-2.72c.42-.79,1-1.4,1.74-1.85.74-.45,1.59-.67,2.55-.67s1.74.23,2.42.69c.68.46,1.21,1.1,1.58,1.93.37.83.56,1.8.56,2.92h-7.86c.07,1.09.41,1.95,1.04,2.56.63.61,1.42.92,2.38.92.71,0,1.3-.17,1.79-.5s.86-.77,1.13-1.32l1.38.7c-.25.52-.59.97-1.01,1.36-.42.39-.91.69-1.48.9-.57.21-1.2.32-1.89.32ZM514.13,309.04h6.02c-.04-.57-.19-1.07-.45-1.48-.26-.41-.6-.73-1.01-.96-.41-.23-.88-.34-1.4-.34s-.99.11-1.46.33c-.47.22-.85.54-1.16.96-.31.42-.49.92-.54,1.49Z"/>
        <path class="cls-10" d="M523.89,315.08v-10h1.5l.08,1.5c.33-.56.77-.99,1.3-1.29s1.15-.45,1.86-.45c.79,0,1.47.16,2.05.47.58.31,1.03.81,1.36,1.49.33.68.48,1.57.47,2.68v5.6h-1.6v-5.12c0-.99-.11-1.74-.34-2.26-.23-.52-.54-.88-.94-1.07s-.85-.29-1.36-.29c-.88,0-1.56.31-2.05.93-.49.62-.73,1.5-.73,2.63v5.18h-1.6Z"/>
        <path class="cls-10" d="M538.81,315.32c-.97,0-1.73-.25-2.26-.76s-.8-1.22-.8-2.14v-5.92h-1.74v-1.42h1.74v-3.12h1.6v3.12h3v1.42h-3v5.76c0,.51.14.9.41,1.17.27.27.66.41,1.15.41.16,0,.32-.02.47-.07s.36-.16.61-.35l.62,1.3c-.35.23-.66.38-.94.47-.28.09-.57.13-.86.13Z"/>
        <path class="cls-10" d="M542.61,315.08v-14h1.6v14h-1.6Z"/>
        <path class="cls-10" d="M547.91,319.32c-.25,0-.55-.05-.88-.15-.33-.1-.69-.23-1.06-.39l.6-1.34c.31.13.58.23.81.3.23.07.42.1.55.1.36,0,.66-.1.89-.29s.43-.47.59-.83l.68-1.68-4.3-9.96h1.7l3.4,8.1,3.36-8.1h1.72l-4.8,11.4c-.25.59-.52,1.09-.79,1.52-.27.43-.6.75-.99.98-.39.23-.88.34-1.48.34Z"/>
        <path class="cls-10" d="M556.93,317.38l1.14-4.22h1.8l-1.56,4.22h-1.38Z"/>
        <path class="cls-10" d="M570.75,315.32c-.97,0-1.73-.25-2.26-.76s-.8-1.22-.8-2.14v-5.92h-1.74v-1.42h1.74v-3.12h1.6v3.12h3v1.42h-3v5.76c0,.51.14.9.41,1.17.27.27.66.41,1.15.41.16,0,.32-.02.47-.07s.36-.16.61-.35l.62,1.3c-.35.23-.66.38-.94.47-.28.09-.57.13-.86.13Z"/>
        <path class="cls-10" d="M578.93,315.32c-.99,0-1.86-.22-2.61-.67-.75-.45-1.34-1.06-1.77-1.85-.43-.79-.64-1.69-.64-2.72s.21-1.93.63-2.72c.42-.79,1.01-1.4,1.76-1.85.75-.45,1.62-.67,2.59-.67s1.84.22,2.59.67c.75.45,1.34,1.06,1.76,1.85.42.79.63,1.69.63,2.72s-.21,1.93-.63,2.72c-.42.79-1,1.4-1.75,1.85-.75.45-1.6.67-2.56.67ZM578.91,313.84c.65,0,1.23-.16,1.73-.48.5-.32.89-.76,1.18-1.33s.43-1.22.43-1.95-.14-1.38-.43-1.95c-.29-.57-.68-1.01-1.19-1.33-.51-.32-1.09-.48-1.76-.48s-1.23.16-1.73.48c-.5.32-.89.76-1.18,1.32-.29.56-.43,1.21-.43,1.96s.14,1.38.43,1.95c.29.57.69,1.01,1.2,1.33.51.32,1.1.48,1.75.48Z"/>
        <path class="cls-10" d="M590.09,319.32c-.64,0-1.22-.06-1.75-.19s-.97-.27-1.34-.42-.63-.28-.79-.39l.6-1.3c.17.09.42.21.74.35.32.14.7.26,1.13.36.43.1.9.15,1.39.15.64,0,1.22-.13,1.73-.39s.91-.67,1.2-1.22c.29-.55.43-1.26.43-2.13v-1.06c-.36.6-.83,1.07-1.42,1.41s-1.25.51-1.98.51c-.89,0-1.68-.21-2.36-.64s-1.21-1.02-1.59-1.79c-.38-.77-.57-1.64-.57-2.63s.19-1.9.57-2.67c.38-.77.91-1.36,1.59-1.79s1.47-.64,2.36-.64c.73,0,1.39.17,1.98.5.59.33,1.06.81,1.42,1.42v-1.68h1.6v9.04c0,1.15-.21,2.11-.64,2.88-.43.77-1.01,1.35-1.76,1.74s-1.59.58-2.54.58ZM590.41,313.62c.59,0,1.11-.16,1.56-.48.45-.32.81-.76,1.06-1.31.25-.55.38-1.2.38-1.93s-.13-1.34-.39-1.89c-.26-.55-.61-.99-1.06-1.3s-.97-.47-1.57-.47-1.18.16-1.67.47-.87.75-1.14,1.3c-.27.55-.41,1.18-.41,1.89s.14,1.38.42,1.93c.28.55.66.99,1.15,1.31.49.32,1.04.48,1.67.48Z"/>
        <path class="cls-10" d="M602.21,315.32c-.97,0-1.83-.22-2.58-.67-.75-.45-1.33-1.06-1.75-1.85-.42-.79-.63-1.69-.63-2.72s.21-1.93.63-2.72c.42-.79,1-1.4,1.74-1.85.74-.45,1.59-.67,2.55-.67s1.74.23,2.42.69c.68.46,1.21,1.1,1.58,1.93.37.83.56,1.8.56,2.92h-7.86c.07,1.09.41,1.95,1.04,2.56.63.61,1.42.92,2.38.92.71,0,1.3-.17,1.79-.5s.86-.77,1.13-1.32l1.38.7c-.25.52-.59.97-1.01,1.36-.42.39-.91.69-1.48.9-.57.21-1.2.32-1.89.32ZM598.99,309.04h6.02c-.04-.57-.19-1.07-.45-1.48-.26-.41-.6-.73-1.01-.96-.41-.23-.88-.34-1.4-.34s-.99.11-1.46.33c-.47.22-.85.54-1.16.96-.31.42-.49.92-.54,1.49Z"/>
        <path class="cls-10" d="M612.51,315.32c-.97,0-1.73-.25-2.26-.76s-.8-1.22-.8-2.14v-5.92h-1.74v-1.42h1.74v-3.12h1.6v3.12h3v1.42h-3v5.76c0,.51.14.9.41,1.17.27.27.66.41,1.15.41.16,0,.32-.02.47-.07s.36-.16.61-.35l.62,1.3c-.35.23-.66.38-.94.47-.28.09-.57.13-.86.13Z"/>
        <path class="cls-10" d="M616.31,315.08v-14h1.6v5.46c.33-.55.77-.97,1.3-1.26s1.15-.44,1.86-.44c.77,0,1.45.16,2.04.47.59.31,1.04.81,1.37,1.49.33.68.48,1.57.47,2.68v5.6h-1.6v-5.12c0-.99-.12-1.74-.35-2.26-.23-.52-.55-.88-.95-1.07s-.85-.29-1.36-.29c-.88,0-1.56.31-2.05.93-.49.62-.73,1.5-.73,2.63v5.18h-1.6Z"/>
        <path class="cls-10" d="M631.85,315.32c-.97,0-1.83-.22-2.58-.67-.75-.45-1.33-1.06-1.75-1.85-.42-.79-.63-1.69-.63-2.72s.21-1.93.63-2.72c.42-.79,1-1.4,1.74-1.85.74-.45,1.59-.67,2.55-.67s1.74.23,2.42.69c.68.46,1.21,1.1,1.58,1.93.37.83.56,1.8.56,2.92h-7.86c.07,1.09.41,1.95,1.04,2.56.63.61,1.42.92,2.38.92.71,0,1.3-.17,1.79-.5s.86-.77,1.13-1.32l1.38.7c-.25.52-.59.97-1.01,1.36-.42.39-.91.69-1.48.9-.57.21-1.2.32-1.89.32ZM628.63,309.04h6.02c-.04-.57-.19-1.07-.45-1.48-.26-.41-.6-.73-1.01-.96-.41-.23-.88-.34-1.4-.34s-.99.11-1.46.33c-.47.22-.85.54-1.16.96-.31.42-.49.92-.54,1.49Z"/>
        <path class="cls-10" d="M638.39,315.08v-10h1.6v1.78c.4-.63.92-1.09,1.55-1.38.63-.29,1.3-.44,1.99-.44v1.5c-.59,0-1.15.1-1.69.29s-.98.51-1.33.95c-.35.44-.52,1.04-.52,1.8v5.5h-1.6Z"/>
        <path class="cls-10" d="M645.83,315.36c-.31,0-.57-.11-.79-.33-.22-.22-.33-.48-.33-.77s.11-.57.33-.79c.22-.22.48-.33.79-.33s.57.11.78.33c.21.22.32.48.32.79s-.11.55-.32.77-.47.33-.78.33Z"/>
      </g>
    </g>
  </g>
</svg>